<svg width="100" height="100" viewBox="0 0 100 100" fill="none" xmlns="http://www.w3.org/2000/svg">
  <defs>
    <linearGradient id="qsLogoBody" x1="17" y1="68" x2="93" y2="68" gradientUnits="userSpaceOnUse">
      <stop offset="0%" stop-color="#C4B5FD"/>
      <stop offset="100%" stop-color="#5B21B6"/>
    </linearGradient>
  </defs>
  <ellipse cx="55" cy="68" rx="38" ry="22" fill="#8B5CF6"/>
  <ellipse cx="55" cy="68" rx="38" ry="22" fill="url(#qsLogoBody)"/>
  <ellipse cx="42" cy="52" rx="22" ry="18" fill="#4C1D95"/>
  <ellipse cx="42" cy="52" rx="16" ry="13" fill="#7C3AED"/>
  <ellipse cx="42" cy="52" rx="10" ry="8" fill="#C4B5FD" opacity="0.6"/>
  <line x1="56" y1="42" x2="52" y2="28" stroke="#5B21B6" stroke-width="3.5" stroke-linecap="round"/>
  <line x1="64" y1="40" x2="62" y2="26" stroke="#5B21B6" stroke-width="3.5" stroke-linecap="round"/>
  <circle cx="51" cy="27" r="5" fill="#0B0D17"/>
  <circle cx="62" cy="25" r="5" fill="#0B0D17"/>
  <circle cx="52.5" cy="25.5" r="2" fill="white"/>
  <circle cx="63.5" cy="23.5" r="2" fill="white"/>
  <line x1="8"  y1="58" x2="24" y2="58" stroke="#3B82F6" stroke-width="3"   stroke-linecap="round" opacity="0.85"/>
  <line x1="4"  y1="65" x2="20" y2="65" stroke="#3B82F6" stroke-width="2.5" stroke-linecap="round" opacity="0.6"/>
  <line x1="10" y1="72" x2="22" y2="72" stroke="#3B82F6" stroke-width="2"   stroke-linecap="round" opacity="0.4"/>
  <circle cx="28" cy="50" r="2.5" fill="#22D3EE" opacity="0.95"/>
  <circle cx="22" cy="56" r="1.5" fill="white" opacity="0.85"/>
  <circle cx="30" cy="60" r="1.5" fill="#A78BFA" opacity="0.8"/>
</svg>
